<?xml version="1.0" encoding="UTF-8" standalone="no"?>
<!-- Created with Inkscape (http://www.inkscape.org/) -->

<svg
   xmlns:dc="http://purl.org/dc/elements/1.1/"
   xmlns:cc="http://creativecommons.org/ns#"
   xmlns:rdf="http://www.w3.org/1999/02/22-rdf-syntax-ns#"
   xmlns:svg="http://www.w3.org/2000/svg"
   xmlns="http://www.w3.org/2000/svg"
   xmlns:sodipodi="http://sodipodi.sourceforge.net/DTD/sodipodi-0.dtd"
   xmlns:inkscape="http://www.inkscape.org/namespaces/inkscape"
   id="svg3083"
   version="1.1"
   inkscape:version="0.48.3.1 r9886"
   width="310"
   height="41"
   sodipodi:docname="logo.svg"
   inkscape:export-filename="logo.png"
   inkscape:export-xdpi="164.63414"
   inkscape:export-ydpi="164.63414">
  <metadata
     id="metadata3089">
    <rdf:RDF>
      <cc:Work
         rdf:about="">
        <dc:format>image/svg+xml</dc:format>
        <dc:type
           rdf:resource="http://purl.org/dc/dcmitype/StillImage" />
        <dc:title></dc:title>
      </cc:Work>
    </rdf:RDF>
  </metadata>
  <defs
     id="defs3087">
	
	
</defs>
  <sodipodi:namedview
     pagecolor="#ffffff"
     bordercolor="#666666"
     borderopacity="1"
     objecttolerance="10"
     gridtolerance="10"
     guidetolerance="10"
     inkscape:pageopacity="0"
     inkscape:pageshadow="2"
     inkscape:window-width="1335"
     inkscape:window-height="1026"
     id="namedview3085"
     showgrid="false"
     fit-margin-top="0"
     fit-margin-left="0"
     fit-margin-right="0"
     fit-margin-bottom="0"
     inkscape:zoom="3.6592083"
     inkscape:cx="118.02673"
     inkscape:cy="47.748875"
     inkscape:window-x="65"
     inkscape:window-y="24"
     inkscape:window-maximized="1"
     inkscape:current-layer="svg3083" />
  <circle
     transform="matrix(0.08932486,0,0,0.08604165,169.98756,8.2267739)"
     d="m 315.091,160.16701 c 0,85.32799 -69.172,154.5 -154.5,154.5 -85.32799,0 -154.4999966,-69.17201 -154.4999966,-154.5 C 6.0910034,74.839014 75.26301,5.6670074 160.591,5.6670074 c 85.328,0 154.5,69.1720066 154.5,154.5000026 z"
     style="fill:#ffffff;stroke:#000000;stroke-width:0;stroke-miterlimit:4;stroke-dasharray:none"
     sodipodi:ry="154.5"
     sodipodi:rx="154.5"
     sodipodi:cy="160.16701"
     sodipodi:cx="160.591"
     cx="160.591"
     cy="160.16701"
     r="154.5"
     id="circle4560" />
  <g
     transform="matrix(0.06849586,0,0,0.06849586,176.32528,12.787502)"
     id="XMLID_1_">
		<g
   id="g4563">
			<path
   inkscape:connector-curvature="0"
   d="m 291.063,241.587 c -0.194,0.056 -0.4,0.1 -0.578,0.139 -0.005,-0.267 -0.011,-0.534 -0.011,-0.8 0.273,0.156 0.467,0.389 0.589,0.661 z"
   id="path4565" />

			<path
   style="fill:#b3b3b3"
   inkscape:connector-curvature="0"
   d="m 264.454,123.617 c 0.25,1.189 1.411,2.528 0.267,3.601 -2.745,-3.217 -3,-8.018 -4.801,-11.735 -0.8,-1.65 -2.228,-2.995 -3.067,-4.534 -1.105,-2.034 -1.472,-4.295 -2.8,-6.134 -0.211,-0.3 -0.522,-0.467 -0.8,-0.8 -1.161,-1.406 -2.245,-2.856 -3.467,-4.401 -2.15,-2.717 -5.167,-4.906 -7.334,-7.468 -3.712,-1.967 -7.957,-3.584 -12.536,-4.268 -0.772,-0.117 -1.511,0.106 -2.267,0 -1.133,-0.161 -2.684,-0.722 -4.4,-0.667 -2.523,0.078 -5.646,2.206 -7.335,3.867 -0.472,0.467 -0.811,1.206 -1.333,1.734 -0.5,0.494 -1.139,0.839 -1.6,1.333 -1.067,1.128 -1.878,2.812 -3.734,3.2 -0.55,-0.561 -0.639,-1.422 -1.067,-2.133 -0.339,-0.567 -0.884,-0.745 -1.333,-1.333 -0.511,-0.672 -0.583,-1.523 -1.067,-2.134 -1.734,-2.201 -4.629,-2.523 -7.602,-3.868 -6.273,-0.044 -10.635,2.367 -14.002,5.468 -0.817,0.75 -1.761,1.461 -2.134,2 -0.772,1.122 -1.089,2.595 -1.867,3.734 -0.906,1.317 -2.223,2.172 -2.934,3.601 -1.444,4.773 -3.184,8.957 -4.4,14.136 -0.534,2.256 -1.595,4.279 -1.601,6.935 -0.728,1.089 -0.594,3.045 -1.333,4.134 0.395,-6.207 0.839,-12.825 3.334,-17.47 0.605,-2 0.444,-3.906 0.8,-5.868 0.361,-1.984 2.05,-3.59 2.267,-5.468 2.967,-2.062 5.334,-4.717 7.334,-7.735 1.145,-0.767 2.333,-1.489 3.201,-2.534 2.534,-0.583 5.156,-1.845 7.734,-2.667 0.812,-0.261 1.706,-0.184 2.534,-0.4 2.54,-0.667 4.951,-1.895 7.602,-2.534 1.406,-0.344 2.956,-0.278 4.534,-0.533 1.339,-0.222 2.689,-0.811 4,-0.934 1,-0.094 2.045,0.123 3.067,0 0.611,-0.078 1.283,-0.483 2,-0.533 3.045,-0.233 7.663,0.255 9.202,1.867 1.384,-0.133 1.706,0.856 2.801,0.667 3.128,1.767 6.935,1.983 9.868,3.201 0.956,0.395 2.045,1.472 3.201,2.267 1.717,1.172 2.784,2.067 4.134,3.467 1.823,1.883 3.457,4.189 5.068,6.667 0.433,0.667 1.033,1.312 1.333,1.867 0.333,0.611 0.294,1.3 0.667,1.867 0.289,0.428 0.767,0.672 1.067,1.067 0.483,0.628 0.706,1.517 1.2,2.267 1.384,2.078 3.051,4.312 4.134,6.668 0.495,1.067 0.5,2.289 1.6,2.934 -0.039,1.406 1.067,2.445 1.467,3.868 0.347,1.228 0.148,2.539 0.398,3.734 z"
   id="path4567" />

			<path
   inkscape:connector-curvature="0"
   d="m 292.058,240.715 c 0,0.422 0,0.839 0,1.261 -0.178,0.333 -0.478,0.6 -0.911,0.689 0.089,-0.355 0.061,-0.745 -0.083,-1.078 0.245,-0.078 0.473,-0.178 0.583,-0.322 l 0.411,-0.55 z"
   id="path4569" />

			<path
   inkscape:connector-curvature="0"
   d="m 291.286,239.776 c -0.245,0.05 -0.567,0.117 -0.823,0.217 -0.005,-0.072 -0.005,-0.15 -0.005,-0.222 -0.05,0 -0.1,0.005 -0.156,0.005 0.15,-0.044 0.312,-0.072 0.495,-0.072 0.178,0 0.339,0.027 0.489,0.072 z"
   id="path4571" />

			<path
   style="fill:#ffffff"
   inkscape:connector-curvature="0"
   d="m 261.92,128.818 c 0.511,1.973 1.389,4.451 1.2,6.668 -0.123,1.45 -1.095,2.845 -1.333,4.401 -0.128,0.839 0.255,1.772 0.133,2.667 -0.111,0.812 -0.934,1.373 -1.067,2.267 -0.105,0.7 0.328,1.411 0.267,2.134 -0.044,0.522 -0.645,1.867 -0.934,2.4 -1.033,1.895 -3.534,4.717 -4.934,5.868 -3.162,2.595 -7.74,3.356 -10.802,6.134 -3.012,0.578 -5.379,1.978 -8.401,2.667 -1.678,0.378 -3.423,1.089 -5.201,1.334 -2.089,0.283 -4.101,-0.139 -6.134,0.4 -0.45,0.117 -0.861,0.55 -1.333,0.667 -0.672,0.161 -1.484,-0.017 -2.267,0.134 -0.578,0.105 -1.195,0.45 -1.734,0.533 -1.689,0.256 -3.806,-0.122 -5.868,-0.267 -2.956,-0.217 -5.556,-0.022 -7.868,-0.934 -0.428,-0.967 0.678,-1.595 1.067,-2.4 0.761,-1.572 1.439,-3.901 2.4,-6.134 1.105,-2.584 3.439,-4.862 2.534,-8.135 -0.478,-1.728 -2.434,-2.745 -3.601,-4.268 -0.823,-1.083 -2.145,-4.167 -4.001,-3.867 -0.683,0.105 -2.8,2.961 -3.2,3.601 -1.756,2.778 -2.934,6.301 -4.401,9.202 0.589,1.678 2.1,2.845 2.8,4.667 0.589,1.522 0.983,3.234 1.867,4.534 0.339,0.5 1.05,0.694 1.2,1.333 -1.456,0.605 -2.9,-0.445 -4.268,-1.067 -1.233,-0.567 -2.767,-1.072 -3.867,-1.867 -0.528,-0.383 -0.812,-0.983 -1.333,-1.333 -1.373,-0.922 -2.867,-1.667 -4.268,-2.667 -1.378,-0.989 -2.934,-1.711 -4.268,-2.667 -0.922,-0.662 -1.861,-2.167 -2.934,-3.334 -2.389,-2.617 -3.856,-5.123 -6.001,-8.001 -0.684,-0.922 -1.695,-1.817 -2.134,-2.667 -0.317,-0.617 -0.367,-1.695 -0.667,-2.534 -0.361,-1.017 -0.878,-1.689 -0.933,-2.4 -0.15,-1.983 0.605,-4.689 1.733,-6.001 -0.072,-4.612 0.794,-8.312 1.734,-12.135 0.372,-1.528 0.528,-3.212 0.933,-4.534 0.233,-0.761 0.873,-1.373 1.067,-2.134 0.133,-0.533 -0.005,-1.194 0.133,-1.733 0.539,-2.128 2.395,-4.834 3.734,-7.201 0.617,-1.095 1.444,-2.206 2.133,-3.334 1.156,-1.9 2.017,-2.89 3.467,-4.268 1.089,-1.039 2.267,-1.656 3.334,-2.8 2.573,-0.5 5.095,-1.961 8.001,-0.4 0.722,0.384 1.506,1.272 2.534,2.267 0.867,0.833 1.939,1.512 2.534,2.267 0.878,1.106 1.678,2.628 2.801,4.134 0.878,1.172 1.817,3.75 2.934,3.867 1.195,0.122 3.051,-1.873 4.001,-2.8 1.289,-1.262 2.167,-2.551 3.067,-3.601 0.895,-1.056 1.984,-2.323 3.067,-3.601 1,-1.189 2.545,-3.295 4,-3.467 1.167,-0.145 2.878,-0.106 4.268,0 6.629,0.5 10.057,2.312 14.402,5.201 4.262,2.834 7.485,6.44 10.668,10.135 1.756,3.439 3.151,7.246 5.334,10.268 1.46,4.416 3.338,8.656 4.405,12.801 z m -22.804,1.067 c 1.162,-1.306 1.489,-4.345 1.333,-6.268 -0.133,-1.672 -1.511,-3.812 -2.4,-4.534 -0.983,-0.806 -2.406,-1.261 -4.4,-0.934 -3.529,0.572 -6.674,2.595 -6.801,6.535 -0.05,1.517 0.667,3.328 1.333,4.134 0.478,0.572 2.461,1.917 3.201,2.134 2.139,0.611 6.506,0.311 7.734,-1.067 z m -57.344,-0.667 c 4.845,1.439 8.868,-2.317 8.535,-6.268 -0.272,-3.262 -2.634,-5.94 -6.535,-5.467 -3.762,0.45 -6.501,4.212 -5.201,8.401 0.351,1.134 1.857,2.928 3.201,3.334 z"
   id="path4573" />

			<path
   inkscape:connector-curvature="0"
   d="m 292.142,240.604 c 0.167,0.439 0.139,0.961 -0.083,1.373 0,-0.422 0,-0.839 0,-1.261 l 0.083,-0.112 z"
   id="path4575" />

			<path
   inkscape:connector-curvature="0"
   d="m 290.458,239.771 c 0,0.072 0,0.15 0.005,0.222 -0.155,0.067 -0.283,0.145 -0.361,0.245 l -0.389,0.517 c -0.111,0 -0.217,0.017 -0.317,0.034 0.111,-0.45 0.417,-0.845 0.9,-1.012 0.005,0 0.005,0 0.005,0 0.057,-10e-4 0.107,-0.006 0.157,-0.006 z"
   id="path4577" />

			<path
   inkscape:connector-curvature="0"
   d="m 290.486,241.727 c 0,0.316 0.005,0.633 0.005,0.95 -0.467,-0.083 -0.789,-0.367 -0.967,-0.723 0.239,-0.05 0.473,-0.105 0.706,-0.172 0.067,-0.017 0.156,-0.039 0.256,-0.055 z"
   id="path4579" />

			<path
   inkscape:connector-curvature="0"
   d="m 289.524,241.954 c -0.111,0.028 -0.217,0.05 -0.328,0.067 0.044,-0.005 -0.472,0.056 -0.45,0.022 l 0.6,-0.8 c 0.006,0.25 0.068,0.495 0.178,0.711 z"
   id="path4581" />

			<path
   inkscape:connector-curvature="0"
   d="m 292.998,239.459 -0.856,1.145 c -0.028,-0.061 -0.05,-0.117 -0.083,-0.172 0,-0.283 0,-0.566 0,-0.85 0.161,-0.039 0.328,-0.072 0.489,-0.1 -0.045,0.011 0.477,-0.056 0.45,-0.023 z"
   id="path4583" />

			<path
   inkscape:connector-curvature="0"
   d="m 290.797,242.705 c 0.128,0 0.245,-0.011 0.35,-0.034 -0.094,0.367 -0.306,0.695 -0.645,0.895 0,-0.3 -0.005,-0.594 -0.011,-0.889 0.095,0.016 0.2,0.028 0.306,0.028 z"
   id="path4585" />

			<path
   inkscape:connector-curvature="0"
   d="m 292.058,240.432 c 0,0.095 0,0.189 0,0.284 l -0.411,0.55 c -0.111,0.145 -0.339,0.245 -0.583,0.322 -0.122,-0.272 -0.316,-0.505 -0.589,-0.661 -0.005,-0.311 -0.011,-0.622 -0.011,-0.934 0.256,-0.1 0.578,-0.167 0.823,-0.217 0,0 0,0 0.005,0 0.355,0.117 0.611,0.361 0.766,0.656 z"
   id="path4587" />

			<path
   style="fill:#ffffff"
   inkscape:connector-curvature="0"
   d="m 209.111,151.088 c 0.144,0.956 -0.756,3.034 -1.2,4.134 -0.772,1.889 -2.212,4.268 -2.801,5.868 -0.25,0.684 0.044,1.245 -0.667,1.733 -1.489,-0.722 -2.178,-2.572 -2.934,-4.267 -0.306,-0.7 -0.605,-1.623 -1.067,-2.534 -0.361,-0.723 -1.167,-1.695 -1.2,-2.267 -0.056,-1.034 1.295,-2.89 2,-4.401 0.939,-2.022 1.383,-3.551 2.534,-4.534 1.373,0.067 2.65,3.006 3.601,4.268 0.5,0.662 1.639,1.35 1.734,2 z"
   id="path4589" />

			<path
   style="fill:#ffffff"
   inkscape:connector-curvature="0"
   d="m 269.921,178.827 c -0.794,4.217 0.083,8.34 -0.8,12.269 -0.322,1.428 -0.967,2.945 -1.333,4.528 -0.495,2.139 -0.878,4.362 -1.333,6.134 -0.134,0.517 -0.006,1.189 -0.134,1.606 -0.15,0.483 -0.655,0.861 -0.8,1.333 -0.172,0.567 -0.117,1.211 -0.267,1.734 -0.65,2.256 -2.267,4.184 -3.334,6.401 -0.534,1.1 -1.028,2.211 -1.601,3.334 -0.794,1.545 -1.467,2.706 -2.134,4.534 -0.633,1.723 -1.817,3.134 -2.4,4.801 -0.528,1.506 -0.85,3.045 -1.467,4.534 -0.583,1.411 -1.528,2.984 -2.4,4.401 -0.934,1.505 -1.562,3.278 -2.4,4.4 -0.8,1.062 -2.478,1.689 -2.667,3.201 -0.945,0.583 -2.073,0.567 -3.201,1.067 -0.928,0.406 -1.361,1.339 -2.134,1.6 -0.472,0.156 -1.067,-0.011 -1.6,0.133 -0.517,0.134 -0.922,0.567 -1.333,0.667 -1.717,0.406 -4.251,0 -6.535,0 -2.195,0 -4.606,-0.172 -6.668,0 -0.689,0.056 -1.361,0.35 -2,0.4 -1.623,0.123 -3.017,-0.316 -4.667,0 -0.495,0.095 -1.017,0.411 -1.601,0.534 -1.1,0.228 -2.367,0.178 -3.601,0.4 -1.094,0.194 -2.289,0.45 -3.334,0.534 -4.851,0.372 -9.757,-0.65 -14.002,0 -0.5,0.072 -0.889,0.155 -1.334,0.533 -3.078,-0.7 -8.173,0.406 -11.068,-1.333 -2.456,-3.901 -3.662,-8.368 -6.001,-12.269 -2.312,-3.856 -4.217,-7.862 -6.535,-11.602 -0.039,-0.456 -0.211,-0.767 -0.133,-1.334 -2.578,-3.522 -3.423,-8.401 -4.268,-13.469 -0.255,-1.545 -0.761,-2.945 -0.933,-4.534 -0.178,-1.606 -0.245,-3.267 -0.4,-4.94 -0.178,-1.873 -0.872,-3.639 -1.067,-5.462 -0.211,-2.006 0.217,-4.384 0.134,-6.668 -0.028,-0.728 -0.356,-1.439 -0.4,-2.133 -0.033,-0.461 0.289,-0.995 0.267,-1.467 -0.027,-0.583 -0.489,-0.906 -0.4,-1.733 0.095,-0.895 0.556,-1.361 0.667,-2.134 0.194,-1.373 -0.189,-2.851 -0.133,-4.134 0.111,-2.617 0.339,-5.268 0.533,-7.735 0.156,-1.928 0.306,-4.034 0.667,-5.734 0.161,-0.761 0.689,-1.506 0.8,-2.267 0.128,-0.883 -0.089,-1.689 0,-2.534 0.189,-1.823 1.028,-3.428 1.867,-4.934 0.883,-1.584 1.495,-3.378 2.267,-5.068 1.572,0.261 2.628,3.256 3.734,4.801 0.811,1.134 2.267,2.123 3.467,3.467 1.172,1.312 1.995,2.967 3.067,3.868 1.022,0.855 2.456,1.45 3.734,2.267 3.334,2.123 6.868,5.229 10.668,7.068 2.772,1.333 5.845,1.867 8.935,2.8 0.867,0.261 1.701,0.928 2.667,1.067 1.595,0.228 3.234,0.089 4.801,0.267 0.656,0.072 1.333,0.367 2,0.4 0.911,0.039 1.828,-0.206 2.8,-0.134 1.884,0.139 4.484,0.573 6.935,0.267 1.528,-0.195 3.034,-0.534 4.534,-0.8 1.373,-0.25 2.556,-0.989 3.867,-1.333 0.639,-0.172 1.373,-0.117 2,-0.267 4.317,-1.062 8.763,-2.489 12.802,-4.667 1.928,-1.045 3.79,-2.223 5.734,-3.067 2.105,-0.922 4.295,-1.522 6.134,-2.534 1.417,-0.784 2.467,-2.017 3.867,-2.667 0.812,0.75 0.483,1.539 1.2,2.267 0.534,0.539 1.583,0.505 2.134,1.2 0.372,0.461 0.706,1.895 1.067,2.934 0.794,2.272 0.883,4.423 1.333,7.334 0.419,2.689 0.903,5.178 1.736,7.868 z"
   id="path4591" />

			<path
   inkscape:connector-curvature="0"
   d="m 290.491,242.677 c 0.006,0.294 0.011,0.589 0.011,0.889 -0.206,0.117 -0.461,0.189 -0.756,0.189 -1.806,0 -1.928,-2.623 -0.35,-2.961 -0.039,0.145 -0.055,0.3 -0.05,0.45 l -0.6,0.8 c -0.022,0.034 0.495,-0.027 0.45,-0.022 0.111,-0.017 0.217,-0.039 0.328,-0.067 0.178,0.355 0.5,0.638 0.967,0.722 z"
   id="path4593" />

			<path
   style="fill:#ffffff"
   inkscape:connector-curvature="0"
   d="m 185.773,120.417 c 1.406,0.556 2.4,3.212 1.333,4.934 -1.695,0.445 -2.601,1.25 -4.134,0.934 -4.1,-0.851 -1.633,-7.641 2.801,-5.868 z"
   id="path4595" />

			<path
   inkscape:connector-curvature="0"
   d="m 292.058,239.582 c 0,0.284 0,0.567 0,0.85 -0.155,-0.294 -0.411,-0.539 -0.767,-0.656 0.083,-0.022 0.161,-0.039 0.222,-0.055 0.184,-0.051 0.362,-0.095 0.545,-0.139 z"
   id="path4597" />

			<path
   style="fill:#b3b3b3"
   inkscape:connector-curvature="0"
   d="m 277.123,184.828 c -0.889,4.968 0.339,9.741 -0.267,14.269 -0.083,0.606 -0.461,1.478 -0.667,2.267 -0.206,0.778 -0.272,1.623 -0.534,2.267 -0.389,0.956 -1.206,1.739 -1.6,2.667 -0.7,1.65 -0.878,3.606 -1.333,5.462 -0.25,1.028 -0.817,1.956 -1.067,2.939 -0.322,1.245 -0.322,2.617 -0.667,3.867 -0.25,0.9 -0.944,1.739 -1.333,2.667 -0.917,2.189 -1.228,4.473 -2.534,6.268 -3.084,3.223 -4.645,7.979 -8.268,10.668 -1.1,-0.378 -2.467,0.339 -3.334,-0.267 0.156,-2.445 2.317,-3.851 3.201,-6.001 0.283,-0.7 0.255,-1.539 0.533,-2.267 0.278,-0.728 0.945,-1.261 1.334,-2 0.35,-0.672 0.35,-1.595 0.667,-2.267 0.561,-1.195 1.761,-2.139 2.267,-3.467 0.645,-1.711 0.961,-3.356 1.734,-4.934 0.472,-0.973 1.367,-1.75 1.6,-2.534 0.189,-0.633 -0.017,-1.35 0.133,-2 0.389,-1.673 1.745,-3.189 2.4,-5.068 0.406,-1.161 0.439,-2.45 0.8,-3.601 0.261,-0.833 0.928,-1.578 1.2,-2.4 0.255,-0.761 0.355,-1.778 0.533,-2.667 0.172,-0.878 0.55,-1.761 0.667,-2.534 0.183,-1.217 -0.211,-2.084 0.8,-2.667 0.378,-4.156 0.912,-10.191 0.134,-14.403 -0.195,-1.061 -0.706,-1.945 -0.934,-3.067 -0.411,-2.04 -0.411,-4.273 -0.8,-6.268 -0.355,-1.839 -0.944,-3.534 -1.333,-5.201 -0.178,-0.761 0.005,-1.528 -0.133,-2.267 -0.128,-0.667 -0.672,-1.4 -0.934,-2.134 -0.789,-2.211 -1.861,-4.656 -2.4,-6.801 -0.355,-1.417 -0.617,-3.773 0.267,-4.667 0.945,0.089 1.667,2.473 2.4,3.734 0.789,1.355 2.006,2.789 2.667,4.534 0.694,1.834 0.622,3.957 1.066,6.268 0.184,0.956 0.6,2.011 0.8,3.067 0.5,2.584 0.884,4.612 2.267,6.268 0.278,4.235 -0.394,9.091 0.668,12.27 z"
   id="path4599" />

			<path
   inkscape:connector-curvature="0"
   d="m 290.502,243.565 c 0.005,0.161 0.005,0.317 0.005,0.478 -0.489,0.478 -0.861,1.067 -1.105,1.706 -0.623,0.511 -1.083,1.167 -1.373,1.9 -0.35,0.361 -0.628,0.778 -0.845,1.233 -0.755,0.511 -1.306,1.228 -1.65,2.045 -0.339,0.461 -0.595,0.983 -0.761,1.539 -0.984,0.617 -1.628,1.572 -1.956,2.645 -1.156,0.605 -1.912,1.65 -2.262,2.839 -0.878,0.55 -1.495,1.383 -1.845,2.317 -1.456,0.589 -2.361,1.839 -2.711,3.245 -0.878,0.439 -1.539,1.139 -1.961,1.956 -0.85,0.428 -1.484,1.089 -1.912,1.878 -0.706,0.372 -1.256,0.906 -1.661,1.539 -0.328,0.283 -0.611,0.611 -0.839,0.967 -0.95,0.495 -1.623,1.278 -2.039,2.206 -0.789,0.395 -1.395,1 -1.823,1.706 -0.861,0.35 -1.517,0.934 -1.995,1.645 -1.2,0.456 -2.039,1.355 -2.512,2.428 -1.306,0.395 -2.217,1.283 -2.739,2.373 -1.239,0.35 -2.134,1.145 -2.684,2.145 -1.245,0.245 -2.178,0.912 -2.806,1.79 -1.339,0.389 -2.272,1.289 -2.812,2.4 -0.867,0.145 -1.589,0.495 -2.167,0.978 -1.667,-0.439 -3.428,-1.256 -5.068,-1.478 -0.733,-0.106 -1.533,0.094 -2.267,0 -1.623,-0.217 -3.234,-1.022 -4.801,-1.467 -1.661,-0.478 -3.278,-0.895 -4.667,-1.467 -2.928,-1.217 -5.656,-2.739 -9.201,-3.067 -1.028,-0.1 -2.112,0.117 -3.201,0 -1.861,-0.2 -3.695,-1.133 -5.601,-1.333 -1.544,-0.167 -2.878,-0.133 -4.401,-0.533 -1.3,-0.345 -2.623,-0.528 -4,-0.8 -2.617,-0.522 -5.307,-1.5 -8.001,-1.739 -1.562,-0.133 -3.211,0.072 -4.801,-0.127 -1.572,-0.2 -3.028,-0.734 -4.667,-0.667 -2.25,0.089 -4.262,0.617 -6.268,0.667 -4.912,0.117 -8.868,-1.473 -11.069,-4.534 -2.062,0.267 -3.729,-1.206 -5.601,-1.601 -1.25,-0.267 -2.511,-0.127 -3.734,-0.405 -2.272,-0.506 -4.74,-1.117 -6.801,-1.862 -1.383,-0.505 -2.45,-1.622 -3.734,-2.133 -1.856,-0.745 -3.506,-1.034 -5.067,-2.134 -0.706,-0.5 -1.373,-1.195 -2.134,-1.467 -1.706,-0.623 -3.773,-0.434 -5.601,-0.934 -1.3,-0.361 -2.35,-1.156 -3.601,-1.473 -3.117,-0.783 -7.018,-0.45 -9.735,0.406 -2.083,0.656 -3.712,1.911 -6.134,2.134 -3.457,0.311 -7.168,0 -10.668,0 -3.373,0 -6.824,0.311 -9.869,0.667 -3.434,0.395 -6.462,2.123 -9.602,3.334 -1.467,0.561 -3.462,0.611 -5.468,1.067 -1.761,0.4 -3.567,1.539 -5.067,1.333 -2.312,-0.322 -3.012,-3.201 -0.4,-3.734 0.4,-0.495 -0.678,-1.039 0,-1.467 1.967,-1.145 3.979,-2.056 5.734,-3.467 3.022,-2.439 6.968,-4.012 11.869,-5.201 1.122,-0.278 2.167,-0.733 3.2,-0.934 0.867,-0.172 1.806,-0.155 2.667,-0.4 2.823,-0.817 4.851,-3.645 7.601,-4.401 -1.072,-1.745 -3.056,-2.522 -4.534,-4.134 -0.811,-0.889 -1.117,-2.156 -2,-2.934 -0.611,-0.539 -1.65,-0.967 -2.534,-1.467 -3.034,-1.733 -6.39,-3.05 -9.335,-5.067 -0.672,-0.461 -1.333,-1.017 -2,-1.467 -0.756,-0.511 -1.617,-0.728 -2.267,-1.201 -1.367,-0.994 -2.112,-3.011 -3.334,-4.134 -1.461,-1.345 -3.517,-2.334 -5.201,-3.467 -1.739,-1.172 -3.395,-2.45 -4.4,-4.268 -0.417,-0.755 -0.483,-1.623 -0.934,-2.534 -0.806,-1.628 -3.545,-5.467 -5.067,-6.401 -0.9,-0.556 -2.095,-0.778 -3.067,-1.2 -1.611,-0.706 -2.967,-1.951 -4.534,-2.801 -1.606,-0.872 -3.034,-1.906 -4.534,-2.8 -1.556,-0.928 -3.173,-1.734 -4.534,-2.8 -1.322,-1.039 -2.322,-2.551 -3.734,-3.467 -1.617,-1.056 -5.295,-1.778 -5.467,-3.734 -0.095,-1.094 1.434,-3.017 2.534,-3.2 0.789,-0.139 1.583,0.4 2.534,0.528 1.067,0.15 2.15,-0.034 2.934,0.139 1.039,0.222 2.05,0.973 3.201,1.333 1.167,0.361 2.412,0.528 3.467,0.934 2.234,0.856 3.895,2.439 5.734,3.201 3.373,1.389 7.346,1.562 10.402,3.201 4.089,2.184 6.184,6.595 9.868,9.335 0.672,0.494 1.528,0.7 2.134,1.2 0.839,0.689 1.367,1.656 2.134,2.534 2.428,0.244 3.406,2.117 5.201,3.334 1.111,0.745 2.417,1.255 3.467,1.995 2.084,1.483 4.54,3.206 7.068,3.873 1.328,0.344 2.74,0.211 4.001,0.533 2.056,0.522 3.623,2.134 5.601,2.8 1.3,0.434 2.756,0.606 4.134,1.067 2.75,0.912 5.368,1.484 7.868,2.534 1.206,0.5 2.5,1.211 3.601,1.467 1.267,0.289 2.678,0.111 3.867,0.4 1.539,0.373 2.817,1.011 4.134,1.734 1.206,0.655 2.312,1.667 3.601,2.261 1.072,0.506 2.312,0.606 3.334,1.072 2.411,1.089 4.512,2.851 6.935,3.734 1.1,0.4 2.195,0.439 3.2,0.933 1.15,0.562 2.284,2.117 3.601,2.534 1.823,0.566 3.99,0.183 6.001,0.667 1.056,0.25 1.912,0.978 2.934,1.2 1.261,0.272 2.595,0.017 4.134,0.133 2.512,0.184 5.162,1.306 7.468,0.133 -0.939,-1.217 -2.456,-1.422 -3.601,-2 -1.261,-0.639 -2.256,-1.373 -3.334,-2.273 -1.967,-1.633 -4.179,-3.178 -5.734,-5.329 -0.8,-1.111 -1.034,-2.611 -1.867,-3.734 -0.755,-1.017 -2.233,-1.439 -3.067,-2.4 -2.373,-2.745 -3.367,-8.068 -4.667,-11.874 -2.367,-6.929 -2.667,-13.614 -2.667,-22.532 0,-2.867 -0.217,-5.807 0,-8.802 0.072,-0.989 0.439,-1.967 0.533,-2.934 0.339,-3.467 -0.122,-6.962 0.133,-10.535 0.145,-2.034 0.723,-4.506 1.2,-6.668 0.8,-3.612 1.606,-6.562 2.267,-9.868 0.695,-3.462 2.045,-6.24 3.201,-9.335 0.767,-2.056 1.439,-4.034 2.4,-6.001 0.956,-1.967 1.45,-4.128 2.4,-5.868 0.711,-1.311 2.312,-2.411 2.934,-3.867 1.573,-3.667 2.028,-8.468 2.801,-13.202 0.461,-2.812 1.3,-5.634 1.867,-8.268 0.245,-1.134 0.317,-2.189 0.667,-3.334 0.294,-0.967 0.672,-1.961 0.934,-2.934 0.583,-2.178 1.7,-4.601 1.733,-6.134 0.028,-1.5 -0.922,-3.695 -1.467,-5.201 -0.611,-1.695 -1.25,-3.467 -1.867,-4.801 -1.717,-3.729 -4.823,-6.74 -6.001,-10.269 2.229,-0.095 4.162,1.461 6.268,2 1.395,0.355 2.9,0.428 4.4,0.8 1.262,0.312 2.412,0.939 3.734,1.333 2.767,0.817 5.99,1.384 8.668,1.601 1.245,0.1 2.945,0.183 4.134,0 1.995,-0.317 4.134,-1.623 6.268,-2.4 2.156,-0.789 4.089,-1.951 6.268,-2.4 2.328,-0.483 4.84,-1.128 7.334,-1.333 4.212,-0.356 7.363,-0.739 11.869,-0.534 1.623,0.072 3.306,-0.1 4.267,0.133 2.317,0.556 4.312,2.578 6.668,3.601 1.312,0.567 2.939,0.973 4.401,1.467 1.489,0.5 2.967,1.289 4.267,1.6 4.368,1.044 9.007,0.372 12.936,-0.267 1.323,-0.223 2.79,-0.2 4.134,-0.534 0.878,-0.222 1.595,-0.878 2.534,-1.2 0.711,-0.25 1.55,-0.306 2.267,-0.533 1.245,-0.4 2.628,-1.778 3.867,-0.667 0.361,2.201 -1.428,3.679 -2.534,5.201 -1.1,1.506 -2.4,2.945 -3.467,4.534 -0.95,1.406 -1.812,3.173 -2.934,5.068 -0.812,1.361 -2.845,3.65 -2.934,5.067 -0.094,1.439 1.75,4.618 2.667,6.134 2.395,3.951 4.379,6.879 6.268,11.335 0.889,2.089 2.261,3.99 2.534,6.134 0.189,1.506 -0.145,2.962 -0.267,4.534 -0.278,3.551 0.467,8.163 0.267,11.869 -0.05,0.922 -0.35,1.873 -0.267,2.667 0.178,1.684 1.672,3.562 2.667,5.201 1.056,1.733 2.367,3.512 3.067,5.067 0.667,1.473 1.083,3.223 1.733,4.801 0.633,1.534 1.511,3.018 2,4.534 0.661,2.05 0.861,4.534 1.2,6.935 1.044,7.44 1.745,15.581 1.333,24.271 -0.15,3.178 -0.145,6.323 -0.8,8.935 -0.639,2.556 -1.623,4.928 -2.267,7.468 -0.617,2.439 -1.722,4.712 -2.4,7.201 -0.5,1.833 -0.594,3.628 -1.2,5.201 -1.961,5.073 -5.395,8.829 -8.401,13.069 -0.928,1.306 -2.278,2.517 -2.8,4.267 4.189,0.812 9.374,0.4 14.402,0.4 4.973,0 9.718,-0.461 13.841,-0.662 -0.483,0.167 -0.789,0.562 -0.9,1.012 v 0.005 c -1.578,0.339 -1.456,2.961 0.35,2.961 0.295,0.002 0.55,-0.07 0.755,-0.187 z m -13.647,-44.468 c 0.606,-4.528 -0.622,-9.301 0.267,-14.269 -1.062,-3.178 -0.389,-8.035 -0.667,-12.269 -1.383,-1.656 -1.767,-3.684 -2.267,-6.268 -0.2,-1.056 -0.617,-2.111 -0.8,-3.067 -0.444,-2.312 -0.372,-4.434 -1.066,-6.268 -0.662,-1.745 -1.878,-3.178 -2.667,-4.534 -0.733,-1.262 -1.456,-3.646 -2.4,-3.734 -0.883,0.895 -0.622,3.25 -0.267,4.667 0.539,2.145 1.611,4.59 2.4,6.801 0.261,0.733 0.806,1.467 0.934,2.134 0.139,0.739 -0.044,1.506 0.133,2.267 0.389,1.667 0.978,3.362 1.333,5.201 0.389,1.995 0.389,4.229 0.8,6.268 0.228,1.122 0.739,2.006 0.934,3.067 0.778,4.212 0.244,10.247 -0.134,14.403 -1.011,0.583 -0.617,1.45 -0.8,2.667 -0.117,0.772 -0.495,1.656 -0.667,2.534 -0.178,0.889 -0.278,1.906 -0.533,2.667 -0.272,0.823 -0.939,1.567 -1.2,2.4 -0.361,1.15 -0.395,2.439 -0.8,3.601 -0.656,1.878 -2.011,3.395 -2.4,5.068 -0.15,0.65 0.056,1.367 -0.133,2 -0.233,0.784 -1.128,1.562 -1.6,2.534 -0.772,1.578 -1.089,3.223 -1.734,4.934 -0.506,1.328 -1.706,2.272 -2.267,3.467 -0.317,0.672 -0.317,1.595 -0.667,2.267 -0.389,0.739 -1.056,1.272 -1.334,2 -0.278,0.728 -0.25,1.567 -0.533,2.267 -0.883,2.15 -3.045,3.556 -3.201,6.001 0.867,0.605 2.234,-0.111 3.334,0.267 3.623,-2.689 5.184,-7.446 8.268,-10.668 1.306,-1.795 1.617,-4.079 2.534,-6.268 0.389,-0.928 1.083,-1.767 1.333,-2.667 0.345,-1.25 0.345,-2.623 0.667,-3.867 0.25,-0.984 0.817,-1.912 1.067,-2.939 0.456,-1.856 0.633,-3.812 1.333,-5.462 0.395,-0.928 1.211,-1.711 1.6,-2.667 0.261,-0.645 0.328,-1.489 0.534,-2.267 0.206,-0.79 0.583,-1.662 0.666,-2.268 z m -7.734,-8.001 c 0.883,-3.929 0.005,-8.052 0.8,-12.269 -0.833,-2.689 -1.317,-5.179 -1.733,-7.868 -0.45,-2.912 -0.539,-5.062 -1.333,-7.334 -0.361,-1.039 -0.695,-2.473 -1.067,-2.934 -0.55,-0.695 -1.6,-0.662 -2.134,-1.2 -0.717,-0.728 -0.389,-1.517 -1.2,-2.267 -1.4,0.65 -2.45,1.883 -3.867,2.667 -1.839,1.011 -4.029,1.611 -6.134,2.534 -1.945,0.845 -3.807,2.022 -5.734,3.067 -4.04,2.178 -8.485,3.606 -12.802,4.667 -0.628,0.15 -1.361,0.094 -2,0.267 -1.312,0.344 -2.495,1.083 -3.867,1.333 -1.5,0.267 -3.006,0.605 -4.534,0.8 -2.451,0.306 -5.051,-0.128 -6.935,-0.267 -0.973,-0.072 -1.889,0.172 -2.8,0.134 -0.667,-0.034 -1.345,-0.328 -2,-0.4 -1.567,-0.178 -3.206,-0.039 -4.801,-0.267 -0.967,-0.139 -1.8,-0.806 -2.667,-1.067 -3.089,-0.934 -6.162,-1.467 -8.935,-2.8 -3.801,-1.839 -7.334,-4.945 -10.668,-7.068 -1.278,-0.817 -2.712,-1.412 -3.734,-2.267 -1.073,-0.9 -1.895,-2.556 -3.067,-3.868 -1.2,-1.344 -2.656,-2.333 -3.467,-3.467 -1.106,-1.544 -2.162,-4.54 -3.734,-4.801 -0.772,1.689 -1.384,3.484 -2.267,5.068 -0.839,1.506 -1.678,3.111 -1.867,4.934 -0.089,0.845 0.128,1.65 0,2.534 -0.111,0.761 -0.639,1.506 -0.8,2.267 -0.361,1.7 -0.511,3.806 -0.667,5.734 -0.194,2.467 -0.422,5.118 -0.533,7.735 -0.056,1.283 0.328,2.761 0.133,4.134 -0.111,0.772 -0.572,1.239 -0.667,2.134 -0.089,0.828 0.373,1.15 0.4,1.733 0.022,0.473 -0.3,1.006 -0.267,1.467 0.044,0.694 0.373,1.406 0.4,2.133 0.083,2.284 -0.345,4.662 -0.134,6.668 0.195,1.823 0.889,3.589 1.067,5.462 0.156,1.673 0.223,3.334 0.4,4.94 0.172,1.589 0.678,2.989 0.933,4.534 0.845,5.067 1.689,9.946 4.268,13.469 -0.078,0.567 0.095,0.878 0.133,1.334 2.317,3.739 4.223,7.746 6.535,11.602 2.339,3.901 3.545,8.368 6.001,12.269 2.895,1.739 7.99,0.633 11.068,1.333 0.445,-0.378 0.833,-0.461 1.334,-0.533 4.245,-0.65 9.151,0.372 14.002,0 1.045,-0.083 2.24,-0.339 3.334,-0.534 1.234,-0.222 2.5,-0.172 3.601,-0.4 0.583,-0.123 1.106,-0.439 1.601,-0.534 1.65,-0.316 3.045,0.123 4.667,0 0.639,-0.05 1.311,-0.344 2,-0.4 2.062,-0.172 4.473,0 6.668,0 2.284,0 4.817,0.406 6.535,0 0.411,-0.1 0.817,-0.533 1.333,-0.667 0.533,-0.144 1.128,0.022 1.6,-0.133 0.772,-0.261 1.206,-1.194 2.134,-1.6 1.128,-0.5 2.256,-0.483 3.201,-1.067 0.189,-1.511 1.867,-2.139 2.667,-3.201 0.839,-1.122 1.467,-2.895 2.4,-4.4 0.873,-1.417 1.817,-2.99 2.4,-4.401 0.617,-1.489 0.939,-3.028 1.467,-4.534 0.583,-1.667 1.767,-3.078 2.4,-4.801 0.667,-1.828 1.339,-2.989 2.134,-4.534 0.572,-1.123 1.067,-2.234 1.601,-3.334 1.067,-2.217 2.684,-4.145 3.334,-6.401 0.15,-0.522 0.094,-1.167 0.267,-1.734 0.145,-0.472 0.65,-0.85 0.8,-1.333 0.128,-0.417 0,-1.089 0.134,-1.606 0.456,-1.772 0.839,-3.995 1.333,-6.134 0.363,-1.583 1.008,-3.101 1.33,-4.528 z m -4.401,-63.878 c 1.145,-1.072 -0.017,-2.412 -0.267,-3.601 -0.25,-1.195 -0.05,-2.506 -0.4,-3.734 -0.4,-1.422 -1.505,-2.461 -1.467,-3.868 -1.1,-0.645 -1.105,-1.867 -1.6,-2.934 -1.083,-2.356 -2.75,-4.59 -4.134,-6.668 -0.494,-0.75 -0.717,-1.639 -1.2,-2.267 -0.3,-0.395 -0.778,-0.639 -1.067,-1.067 -0.372,-0.566 -0.333,-1.255 -0.667,-1.867 -0.3,-0.556 -0.9,-1.2 -1.333,-1.867 -1.611,-2.478 -3.245,-4.784 -5.068,-6.667 -1.35,-1.4 -2.417,-2.295 -4.134,-3.467 -1.156,-0.795 -2.245,-1.873 -3.201,-2.267 -2.934,-1.217 -6.74,-1.434 -9.868,-3.201 -1.095,0.189 -1.417,-0.8 -2.801,-0.667 -1.539,-1.611 -6.156,-2.1 -9.202,-1.867 -0.717,0.05 -1.389,0.456 -2,0.533 -1.022,0.123 -2.067,-0.094 -3.067,0 -1.312,0.123 -2.662,0.711 -4,0.934 -1.578,0.255 -3.128,0.189 -4.534,0.533 -2.65,0.639 -5.062,1.867 -7.602,2.534 -0.828,0.216 -1.722,0.139 -2.534,0.4 -2.578,0.822 -5.201,2.083 -7.734,2.667 -0.867,1.045 -2.056,1.767 -3.201,2.534 -2,3.018 -4.368,5.673 -7.334,7.735 -0.217,1.878 -1.906,3.484 -2.267,5.468 -0.356,1.961 -0.195,3.867 -0.8,5.868 -2.495,4.645 -2.939,11.263 -3.334,17.47 0.739,-1.089 0.605,-3.045 1.333,-4.134 0.006,-2.656 1.067,-4.679 1.601,-6.935 1.217,-5.179 2.956,-9.363 4.4,-14.136 0.711,-1.428 2.028,-2.284 2.934,-3.601 0.778,-1.139 1.095,-2.612 1.867,-3.734 0.373,-0.539 1.317,-1.25 2.134,-2 3.367,-3.101 7.729,-5.512 14.002,-5.468 2.973,1.345 5.868,1.667 7.602,3.868 0.483,0.611 0.556,1.461 1.067,2.134 0.45,0.589 0.995,0.767 1.333,1.333 0.428,0.711 0.517,1.572 1.067,2.133 1.856,-0.389 2.667,-2.072 3.734,-3.2 0.461,-0.495 1.1,-0.839 1.6,-1.333 0.522,-0.528 0.861,-1.267 1.333,-1.734 1.689,-1.661 4.812,-3.79 7.335,-3.867 1.717,-0.056 3.267,0.505 4.4,0.667 0.756,0.106 1.495,-0.117 2.267,0 4.579,0.684 8.824,2.301 12.536,4.268 2.167,2.562 5.184,4.751 7.334,7.468 1.223,1.545 2.306,2.995 3.467,4.401 0.278,0.333 0.589,0.5 0.8,0.8 1.328,1.839 1.695,4.101 2.8,6.134 0.839,1.539 2.267,2.884 3.067,4.534 1.803,3.717 2.058,8.517 4.803,11.735 z m -1.6,8.268 c 0.189,-2.217 -0.689,-4.695 -1.2,-6.668 -1.067,-4.145 -2.945,-8.385 -4.401,-12.802 -2.184,-3.022 -3.579,-6.829 -5.334,-10.268 -3.184,-3.695 -6.407,-7.301 -10.668,-10.135 -4.345,-2.889 -7.773,-4.701 -14.402,-5.201 -1.389,-0.106 -3.101,-0.145 -4.268,0 -1.456,0.172 -3,2.278 -4,3.467 -1.083,1.278 -2.173,2.544 -3.067,3.601 -0.9,1.05 -1.778,2.339 -3.067,3.601 -0.95,0.928 -2.806,2.922 -4.001,2.8 -1.117,-0.117 -2.056,-2.695 -2.934,-3.867 -1.123,-1.506 -1.923,-3.028 -2.801,-4.134 -0.594,-0.755 -1.667,-1.434 -2.534,-2.267 -1.028,-0.995 -1.812,-1.883 -2.534,-2.267 -2.906,-1.561 -5.429,-0.1 -8.001,0.4 -1.067,1.145 -2.245,1.761 -3.334,2.8 -1.45,1.378 -2.312,2.367 -3.467,4.268 -0.689,1.128 -1.517,2.239 -2.133,3.334 -1.339,2.367 -3.195,5.073 -3.734,7.201 -0.139,0.539 0,1.2 -0.133,1.733 -0.194,0.761 -0.833,1.373 -1.067,2.134 -0.405,1.322 -0.561,3.006 -0.933,4.534 -0.939,3.823 -1.806,7.523 -1.734,12.135 -1.128,1.312 -1.884,4.018 -1.733,6.001 0.055,0.711 0.572,1.384 0.933,2.4 0.3,0.839 0.35,1.917 0.667,2.534 0.439,0.85 1.45,1.745 2.134,2.667 2.145,2.878 3.612,5.384 6.001,8.001 1.072,1.167 2.011,2.672 2.934,3.334 1.334,0.956 2.89,1.678 4.268,2.667 1.4,1 2.895,1.745 4.268,2.667 0.522,0.35 0.806,0.95 1.333,1.333 1.1,0.795 2.634,1.3 3.867,1.867 1.367,0.622 2.812,1.672 4.268,1.067 -0.15,-0.639 -0.861,-0.833 -1.2,-1.333 -0.884,-1.3 -1.278,-3.012 -1.867,-4.534 -0.7,-1.823 -2.211,-2.99 -2.8,-4.667 1.467,-2.9 2.645,-6.423 4.401,-9.202 0.4,-0.639 2.517,-3.495 3.2,-3.601 1.856,-0.3 3.178,2.784 4.001,3.867 1.167,1.522 3.123,2.54 3.601,4.268 0.906,3.272 -1.428,5.551 -2.534,8.135 -0.961,2.233 -1.639,4.562 -2.4,6.134 -0.389,0.806 -1.495,1.434 -1.067,2.4 2.312,0.911 4.912,0.717 7.868,0.934 2.062,0.145 4.179,0.522 5.868,0.267 0.539,-0.083 1.156,-0.428 1.734,-0.533 0.783,-0.15 1.595,0.027 2.267,-0.134 0.472,-0.116 0.883,-0.55 1.333,-0.667 2.034,-0.539 4.045,-0.117 6.134,-0.4 1.778,-0.245 3.523,-0.956 5.201,-1.334 3.022,-0.689 5.39,-2.089 8.401,-2.667 3.062,-2.778 7.64,-3.54 10.802,-6.134 1.4,-1.15 3.901,-3.973 4.934,-5.868 0.289,-0.534 0.889,-1.878 0.934,-2.4 0.061,-0.723 -0.372,-1.434 -0.267,-2.134 0.133,-0.895 0.956,-1.456 1.067,-2.267 0.122,-0.895 -0.261,-1.828 -0.133,-2.667 0.234,-1.555 1.207,-2.95 1.329,-4.4 z m -55.209,19.737 c 0.444,-1.1 1.344,-3.178 1.2,-4.134 -0.095,-0.65 -1.234,-1.339 -1.734,-2 -0.95,-1.262 -2.228,-4.201 -3.601,-4.268 -1.15,0.983 -1.595,2.512 -2.534,4.534 -0.706,1.511 -2.056,3.367 -2,4.401 0.033,0.572 0.839,1.544 1.2,2.267 0.461,0.911 0.761,1.833 1.067,2.534 0.756,1.695 1.445,3.545 2.934,4.267 0.711,-0.489 0.417,-1.05 0.667,-1.733 0.589,-1.601 2.028,-3.979 2.801,-5.868 z m -33.073,84.414 c -0.528,-1.689 -1.639,-3.084 -2.534,-4.667 -0.845,-1.5 -1.661,-3.101 -2.534,-4.667 -1.689,-3.034 -3.723,-6.106 -4.934,-9.602 -3.173,-9.168 -4.984,-19.848 -5.868,-30.939 -0.272,-3.445 -0.312,-7.34 0,-10.935 0.233,-2.662 0.828,-5.679 0.934,-8.535 0.122,-3.268 -0.295,-6.018 0.4,-8.535 0.167,-0.605 0.628,-1.145 0.8,-1.733 0.783,-2.739 0.572,-5.201 1.333,-7.735 0.361,-1.206 1.522,-2.233 2,-3.601 0.195,-0.556 0.062,-1.35 0.267,-2 0.377,-1.189 1.5,-2.256 0.533,-3.868 -0.044,0 -0.089,0 -0.133,0 -1.906,2.673 -2.162,6.996 -4.268,9.468 0.078,1.695 -1.05,3.229 -1.333,4.935 -0.128,0.767 0.039,1.572 -0.133,2.4 -0.35,1.656 -1.156,3.234 -1.467,5.067 -0.317,1.878 -0.567,3.817 -0.934,5.734 -0.439,2.3 -1.339,4.5 -1.333,6.801 0,0.694 0.245,1.439 0.267,2.134 0.083,2.6 -0.272,5.117 -0.4,7.468 -0.289,5.234 -0.222,11.936 0,16.936 0.089,2.045 -0.367,4.146 -0.133,5.734 0.194,1.345 1.639,2.79 1.2,4.667 0.872,0.772 0.933,2.056 1.333,3.067 0.406,1.017 0.961,1.983 1.333,3.067 0.745,2.162 0.911,4.862 2.267,6.535 0.678,0.833 1.912,0.961 2.8,1.734 0.645,0.556 1.573,1.944 1.867,2.534 0.556,1.111 0.745,2.489 1.467,3.601 2.636,1.412 3.641,4.452 7.203,4.935 z"
   id="path4601" />

			<path
   style="fill:#b3b3b3"
   inkscape:connector-curvature="0"
   d="m 172.304,234.97 c 0.895,1.583 2.006,2.979 2.534,4.667 -3.562,-0.483 -4.567,-3.523 -7.201,-4.934 -0.722,-1.111 -0.911,-2.489 -1.467,-3.601 -0.294,-0.589 -1.223,-1.978 -1.867,-2.534 -0.889,-0.772 -2.123,-0.9 -2.8,-1.734 -1.356,-1.672 -1.522,-4.373 -2.267,-6.535 -0.372,-1.083 -0.928,-2.05 -1.333,-3.067 -0.4,-1.011 -0.461,-2.295 -1.333,-3.067 0.439,-1.878 -1.006,-3.323 -1.2,-4.667 -0.233,-1.589 0.222,-3.689 0.133,-5.734 -0.222,-5 -0.289,-11.702 0,-16.936 0.128,-2.351 0.483,-4.868 0.4,-7.468 -0.022,-0.695 -0.267,-1.439 -0.267,-2.134 -0.005,-2.301 0.895,-4.501 1.333,-6.801 0.367,-1.917 0.617,-3.856 0.934,-5.734 0.311,-1.833 1.117,-3.412 1.467,-5.067 0.172,-0.828 0.005,-1.634 0.133,-2.4 0.284,-1.706 1.412,-3.24 1.333,-4.935 2.106,-2.473 2.362,-6.795 4.268,-9.468 0.044,0 0.089,0 0.133,0 0.967,1.611 -0.156,2.678 -0.533,3.868 -0.206,0.65 -0.072,1.444 -0.267,2 -0.478,1.367 -1.639,2.395 -2,3.601 -0.761,2.534 -0.55,4.996 -1.333,7.735 -0.172,0.589 -0.634,1.128 -0.8,1.733 -0.695,2.518 -0.278,5.268 -0.4,8.535 -0.106,2.856 -0.7,5.873 -0.934,8.535 -0.312,3.595 -0.272,7.49 0,10.935 0.883,11.091 2.695,21.771 5.868,30.939 1.211,3.495 3.245,6.568 4.934,9.602 0.871,1.565 1.687,3.165 2.532,4.666 z"
   id="path4603" />

			<path
   inkscape:connector-curvature="0"
   d="m 240.449,123.617 c 0.156,1.922 -0.172,4.962 -1.333,6.268 -1.228,1.378 -5.595,1.678 -7.734,1.067 -0.739,-0.217 -2.723,-1.562 -3.201,-2.134 -0.667,-0.806 -1.384,-2.617 -1.333,-4.134 0.127,-3.939 3.272,-5.962 6.801,-6.535 1.995,-0.328 3.417,0.128 4.4,0.934 0.889,0.722 2.267,2.862 2.4,4.534 z m -4.934,4.934 c 2.195,-0.75 3.812,-4.229 1.867,-6.401 -2.073,-2.284 -6.457,-0.373 -7.201,1.6 -1.428,3.779 1.789,5.318 5.334,4.801 z"
   id="path4605" />

			<path
   inkscape:connector-curvature="0"
   d="m 292.142,240.604 -0.083,0.111 c 0,-0.095 0,-0.189 0,-0.284 0.033,0.056 0.055,0.112 0.083,0.173 z"
   id="path4607" />

			<path
   inkscape:connector-curvature="0"
   d="m 291.063,241.587 c 0.145,0.333 0.172,0.723 0.083,1.078 v 0.005 c -0.105,0.022 -0.222,0.034 -0.35,0.034 -0.105,0 -0.211,-0.011 -0.306,-0.028 0,-0.317 -0.005,-0.634 -0.005,-0.95 0.179,-0.038 0.384,-0.083 0.578,-0.139 z"
   id="path4609" />

			<path
   inkscape:connector-curvature="0"
   d="m 290.463,239.993 c 0,0.312 0.006,0.623 0.011,0.934 -0.2,-0.105 -0.444,-0.172 -0.728,-0.172 -0.011,0 -0.022,0 -0.033,0 l 0.389,-0.517 c 0.078,-0.101 0.206,-0.178 0.361,-0.245 z"
   id="path4611" />

			<path
   inkscape:connector-curvature="0"
   d="m 289.713,240.754 -0.367,0.489 c -0.005,-0.15 0.011,-0.306 0.05,-0.45 v -0.005 c 0.101,-0.017 0.207,-0.034 0.317,-0.034 z"
   id="path4613" />

			<path
   inkscape:connector-curvature="0"
   d="m 190.308,122.95 c 0.333,3.951 -3.69,7.707 -8.535,6.268 -1.345,-0.406 -2.851,-2.201 -3.201,-3.334 -1.3,-4.189 1.439,-7.952 5.201,-8.401 3.901,-0.473 6.262,2.205 6.535,5.467 z m -3.201,2.401 c 1.067,-1.722 0.072,-4.378 -1.333,-4.934 -4.434,-1.772 -6.901,5.018 -2.801,5.868 1.533,0.316 2.439,-0.49 4.134,-0.934 z"
   id="path4615" />

			<path
   inkscape:connector-curvature="0"
   d="m 290.475,240.926 c 0,0.267 0.006,0.534 0.011,0.8 -0.1,0.017 -0.189,0.039 -0.256,0.056 -0.233,0.066 -0.466,0.122 -0.706,0.172 -0.111,-0.216 -0.172,-0.461 -0.178,-0.711 l 0.367,-0.489 c 0.011,0 0.022,0 0.033,0 0.284,0 0.528,0.067 0.729,0.172 z"
   id="path4617" />

			<path
   style="fill:#ffffff"
   inkscape:connector-curvature="0"
   d="m 237.382,122.15 c 1.945,2.172 0.328,5.651 -1.867,6.401 -3.545,0.517 -6.762,-1.022 -5.334,-4.801 0.744,-1.972 5.129,-3.883 7.201,-1.6 z"
   id="path4619" />

		</g>

		<g
   id="g4621">
		</g>

	</g>
  <g
     style="font-size:19.28775406px;font-style:normal;font-variant:normal;font-weight:normal;font-stretch:normal;line-height:125%;letter-spacing:0px;word-spacing:0px;fill:#ffffff;fill-opacity:1;stroke:none;font-family:Variex;-inkscape-font-specification:Variex"
     id="text3093">
    <path
       d="M 19.094877,34.049288 12.11271,25.369798 8.9645386e-8,40.568549 l 0,-38.151178 6.442109810354614,0 0,19.712085 10.3768121,-13.0385221 4.937665,4.0504281 -5.554874,7.059318 7.792253,9.759604 -4.899089,4.089004"
       style="font-size:38.57550812px;fill:#ffffff"
       id="path4789" />
    <path
       d="m 44.140627,11.019709 0,-3.7803995 6.44211,0 0,28.9316315 -6.44211,0 0,-3.741825 c -1.774491,1.002963 -3.703265,1.504444 -5.786326,1.504445 -3.368938,-10e-7 -6.24924,-1.19584 -8.640914,-3.587522 -2.365967,-2.391677 -3.548949,-5.271978 -3.548946,-8.640914 -3e-6,-3.368913 1.182979,-6.236356 3.548946,-8.602338 2.391674,-2.391659 5.271976,-3.5874991 8.640914,-3.5875225 2.083061,2.34e-5 4.011835,0.5015045 5.786326,1.5044445 m -5.786326,4.89909 c -1.543033,1.7e-5 -2.893174,0.578649 -4.050428,1.735898 -1.157275,1.157279 -1.735907,2.507421 -1.735898,4.050428 -9e-6,1.568747 0.578623,2.931747 1.735898,4.089004 1.157254,1.131554 2.507395,1.697328 4.050428,1.697322 1.568722,6e-6 2.918863,-0.565768 4.050428,-1.697322 1.157246,-1.157257 1.735878,-2.520257 1.735898,-4.089004 -2e-5,-1.543007 -0.578652,-2.893149 -1.735898,-4.050428 -1.131565,-1.157249 -2.481706,-1.735881 -4.050428,-1.735898"
       style="font-size:38.57550812px;fill:#ffffff"
       id="path4791" />
    <path
       d="m 56.130379,32.969173 0,-25.7298635 6.44211,0 0,3.7803995 c 1.774462,-1.00294 3.703236,-1.5044211 5.786326,-1.5044445 l 0.655784,0 0,6.4035345 -0.655784,0 c -1.568751,1.7e-5 -2.931751,0.578649 -4.089004,1.735898 -1.131558,1.157279 -1.697332,2.507421 -1.697322,4.050428 l 0,11.264048 -6.44211,0"
       style="font-size:38.57550812px;fill:#ffffff"
       id="path4793" />
    <path
       d="m 72.781136,39.411283 0,-32.1719735 6.44211,0 0,3.7803995 c 1.774462,-1.00294 3.703235,-1.5044211 5.786326,-1.5044445 3.368909,2.34e-5 6.249211,1.1958635 8.640914,3.5875225 2.391655,2.365982 3.587495,5.233425 3.587522,8.602338 -2.7e-5,3.368936 -1.195867,6.249237 -3.587522,8.640914 -2.391703,2.391682 -5.272005,3.587521 -8.640914,3.587522 -2.083091,-10e-7 -4.011864,-0.501482 -5.786326,-1.504445 l 0,6.982167 -6.44211,0 M 90.795898,21.705125 c -2.1e-5,-1.543007 -0.578653,-2.893149 -1.735898,-4.050428 -1.157283,-1.157249 -2.507425,-1.735881 -4.050428,-1.735898 -1.568751,1.7e-5 -2.931751,0.578649 -4.089004,1.735898 -1.131558,1.157279 -1.697332,2.507421 -1.697322,4.050428 -1e-5,1.568747 0.565764,2.931747 1.697322,4.089004 1.157253,1.131554 2.520253,1.697328 4.089004,1.697322 1.543003,6e-6 2.893145,-0.565768 4.050428,-1.697322 1.157245,-1.157257 1.735877,-2.520257 1.735898,-4.089004"
       style="font-size:38.57550812px;fill:#ffffff"
       id="path4795" />
    <path
       d="m 124.90748,25.909855 -17.89903,0 c 0.28288,1.363007 0.95152,2.507413 2.00592,3.433221 1.08011,0.925815 2.30166,1.38872 3.66468,1.388718 l 0.96439,0 0,6.403534 -0.96439,0 c -3.36894,-4e-6 -6.24924,-1.195843 -8.64092,-3.587522 -2.36596,-2.365963 -3.54894,-5.233406 -3.54894,-8.602338 l 0,-3.240343 c 0,-3.368913 1.18298,-6.236356 3.54894,-8.602338 2.39168,-2.391659 5.27198,-3.5874991 8.64092,-3.5875225 3.36891,2.34e-5 6.24921,1.1958635 8.64091,3.5875225 2.39166,2.365982 3.5875,5.233425 3.58752,8.602338 l 0,4.20473 m -17.55185,-6.442109 10.60826,0 c -0.46292,-1.054383 -1.17014,-1.903043 -2.12165,-2.545984 -0.95155,-0.668625 -2.00594,-1.002946 -3.16319,-1.002963 -1.15728,1.7e-5 -2.21168,0.334338 -3.16319,1.002963 -0.95154,0.642941 -1.67162,1.491601 -2.16023,2.545984"
       style="font-size:38.57550812px;fill:#ffffff"
       id="path4797" />
    <path
       d="m 160.63021,10.479652 6.44211,0 0,29.780292 -16.08599,-19.40348 0,12.112709 -6.44211,0 0,-29.7802918 16.08599,19.4034808 0,-12.11271"
       style="font-size:38.57550812px;fill:#ffffff"
       id="path4799" />
    <path
       d="m 220.22154,34.049288 -6.98217,-8.67949 -12.11271,15.198751 0,-38.151178 6.44211,0 0,19.712085 10.37681,-13.0385221 4.93767,4.0504281 -5.55487,7.059318 7.79225,9.759604 -4.89909,4.089004"
       style="font-size:38.57550812px;fill:#ffffff"
       id="path4803" />
    <path
       d="m 226.86677,10.479652 3.20176,0 0,-8.062281 6.44211,0 0,8.062281 6.75072,0 0,6.403535 -6.75072,0 0,4.821938 c -1e-5,1.568747 0.56577,2.931747 1.69733,4.089004 1.15725,1.131554 2.52025,1.697328 4.089,1.697322 l 0.96439,0 0,6.44211 -0.96439,0 c -3.36894,-10e-7 -6.24924,-1.19584 -8.64091,-3.587522 -2.39169,-2.391677 -3.58753,-5.271978 -3.58753,-8.640914 l 0,-4.821938 -3.20176,0 0,-6.403535"
       style="font-size:38.57550812px;fill:#ffffff"
       id="path4805" />
    <path
       d="m 270.99714,25.909855 -17.89903,0 c 0.28288,1.363007 0.95152,2.507413 2.00593,3.433221 1.0801,0.925815 2.30165,1.38872 3.66467,1.388718 l 0.96439,0 0,6.403534 -0.96439,0 c -3.36894,-4e-6 -6.24924,-1.195843 -8.64091,-3.587522 -2.36597,-2.365963 -3.54895,-5.233406 -3.54895,-8.602338 l 0,-3.240343 c 0,-3.368913 1.18298,-6.236356 3.54895,-8.602338 2.39167,-2.391659 5.27197,-3.5874991 8.64091,-3.5875225 3.36891,2.34e-5 6.24921,1.1958635 8.64091,3.5875225 2.39166,2.365982 3.5875,5.233425 3.58752,8.602338 l 0,4.20473 m -17.55185,-6.442109 10.60826,0 c -0.46292,-1.054383 -1.17014,-1.903043 -2.12165,-2.545984 -0.95155,-0.668625 -2.00594,-1.002946 -3.16319,-1.002963 -1.15728,1.7e-5 -2.21168,0.334338 -3.16319,1.002963 -0.95154,0.642941 -1.67162,1.491601 -2.16023,2.545984"
       style="font-size:38.57550812px;fill:#ffffff"
       id="path4807" />
    <path
       d="M 277.82802,34.242165 272.0417,31.696182 282.99714,6.6992524 291.02085,25.022619 299.04455,6.6992524 310,31.696182 l -5.78633,2.545983 -5.16912,-11.76553 -8.0237,18.323367 -8.02371,-18.323367 -5.16912,11.76553"
       style="font-size:38.57550812px;fill:#ffffff"
       id="path4809" />
  </g>
</svg>
